<svg width="140" height="140" viewBox="0 0 140 140" fill="none" xmlns="http://www.w3.org/2000/svg">
<circle cx="70" cy="70" r="70" fill="#16213C"/>
<g clip-path="url(#clip0_410_240)">
<path d="M71.2496 64.9999C71.2496 60.8749 67.8746 57.4999 63.7496 57.4999C59.6246 57.4999 56.2496 60.8749 56.2496 64.9999C56.2496 69.1249 59.6246 72.4999 63.7496 72.4999C67.8746 72.4999 71.2496 69.1249 71.2496 64.9999ZM63.7496 67.4999C62.3746 67.4999 61.2496 66.3749 61.2496 64.9999C61.2496 63.6249 62.3746 62.4999 63.7496 62.4999C65.1246 62.4999 66.2496 63.6249 66.2496 64.9999C66.2496 66.3749 65.1246 67.4999 63.7496 67.4999ZM79.9996 72.4999C82.7746 72.4999 84.9996 70.2749 84.9996 67.4999C84.9996 64.7249 82.7746 62.4999 79.9996 62.4999C77.2246 62.4999 74.9746 64.7249 74.9996 67.4999C74.9996 70.2749 77.2246 72.4999 79.9996 72.4999ZM69.9746 45.0249C56.1746 45.0249 44.9746 56.2249 44.9746 70.0249C44.9746 83.8249 56.1746 95.0249 69.9746 95.0249C83.7746 95.0249 94.9746 83.8249 94.9746 70.0249C94.9746 56.2249 83.7746 45.0249 69.9746 45.0249V45.0249ZM54.5996 82.7999C56.2996 81.4499 60.2746 80.0249 63.7496 80.0249C63.9246 80.0249 64.1246 80.0499 64.3246 80.0499C64.9246 78.4499 65.9996 76.8249 67.5746 75.3999C66.3133 75.1582 65.0337 75.0244 63.7496 74.9999C60.4996 74.9999 55.2746 76.1249 51.9246 78.5749C50.6746 75.9749 49.9746 73.0749 49.9746 69.9999C49.9746 58.9749 58.9496 49.9999 69.9746 49.9999C80.9996 49.9999 89.9746 58.9749 89.9746 69.9999C89.9746 72.9999 89.2996 75.8499 88.0996 78.4249C85.5996 76.9499 82.1996 76.2499 79.9996 76.2499C76.1996 76.2499 68.7496 78.2749 68.7496 82.9999V89.9499C66.0262 89.795 63.364 89.0801 60.9293 87.8499C58.4946 86.6197 56.3399 84.9005 54.5996 82.7999V82.7999Z" fill="#8ECAE6"/>
</g>
<defs>
<clipPath id="clip0_410_240">
<rect width="60" height="60" fill="white" transform="translate(40 40)"/>
</clipPath>
</defs>
</svg>
