<svg width="140" height="140" viewBox="0 0 140 140" fill="none" xmlns="http://www.w3.org/2000/svg">
<circle cx="70" cy="70" r="70" fill="#16213C"/>
<path d="M75.125 85.9375L87.5625 73.5L84 70L75.125 78.875L71.625 75.3125L68.0625 78.875L75.125 85.9375ZM57.5 77.5H65V72.5H57.5V77.5ZM57.5 70H75V65H57.5V70ZM57.5 62.5H75V57.5H57.5V62.5ZM70 95C66.5417 95 63.2917 94.3433 60.25 93.03C57.2083 91.7183 54.5625 89.9375 52.3125 87.6875C50.0625 85.4375 48.2817 82.7917 46.97 79.75C45.6567 76.7083 45 73.4583 45 70C45 66.5417 45.6567 63.2917 46.97 60.25C48.2817 57.2083 50.0625 54.5625 52.3125 52.3125C54.5625 50.0625 57.2083 48.2808 60.25 46.9675C63.2917 45.6558 66.5417 45 70 45C73.4583 45 76.7083 45.6558 79.75 46.9675C82.7917 48.2808 85.4375 50.0625 87.6875 52.3125C89.9375 54.5625 91.7183 57.2083 93.03 60.25C94.3433 63.2917 95 66.5417 95 70C95 73.4583 94.3433 76.7083 93.03 79.75C91.7183 82.7917 89.9375 85.4375 87.6875 87.6875C85.4375 89.9375 82.7917 91.7183 79.75 93.03C76.7083 94.3433 73.4583 95 70 95ZM70 90C75.5833 90 80.3125 88.0625 84.1875 84.1875C88.0625 80.3125 90 75.5833 90 70C90 64.4167 88.0625 59.6875 84.1875 55.8125C80.3125 51.9375 75.5833 50 70 50C64.4167 50 59.6875 51.9375 55.8125 55.8125C51.9375 59.6875 50 64.4167 50 70C50 75.5833 51.9375 80.3125 55.8125 84.1875C59.6875 88.0625 64.4167 90 70 90Z" fill="#8ECAE6"/>
</svg>
