<svg width="56" height="56" viewBox="0 0 56 56" fill="none" xmlns="http://www.w3.org/2000/svg">
<path d="M10 36.7727H9.73587L9.58699 36.9909L2.5 47.3798V6.5H2.51328H2.54007H2.56751H2.59561H2.62435H2.65373H2.68375H2.71442H2.74572H2.77765H2.81022H2.84342H2.87725H2.9117H2.94678H2.98248H3.01879H3.05573H3.09328H3.13144H3.17021H3.20959H3.24957H3.29016H3.33134H3.37313H3.41551H3.45849H3.50206H3.54621H3.59096H3.63629H3.6822H3.72869H3.77576H3.82341H3.87162H3.92042H3.96977H4.0197H4.07019H4.12124H4.17286H4.22502H4.27775H4.33103H4.38486H4.43923H4.49416H4.54962H4.60563H4.66218H4.71926H4.77688H4.83504H4.89372H4.95293H5.01266H5.07292H5.1337H5.195H5.25682H5.31915H5.38199H5.44534H5.5092H5.57356H5.63843H5.70379H5.76966H5.83602H5.90288H5.97022H6.03806H6.10638H6.17519H6.24448H6.31425H6.38449H6.45522H6.52641H6.59808H6.67022H6.74282H6.81588H6.88941H6.9634H7.03784H7.11274H7.1881H7.2639H7.34015H7.41685H7.49399H7.57157H7.64959H7.72805H7.80694H7.88626H7.96602H8.0462H8.12681H8.20784H8.28929H8.37116H8.45344H8.53614H8.61926H8.70278H8.78671H8.87104H8.95577H9.04091H9.12645H9.21238H9.2987H9.38541H9.47252H9.56001H9.64788H9.73614H9.82477H9.91379H10.0032H10.0929H10.1831H10.2736H10.3644H10.4557H10.5473H10.6392H10.7315H10.8242H10.9172H11.0106H11.1043H11.1983H11.2928H11.3875H11.4826H11.578H11.6738H11.7698H11.8663H11.963H12.0601H12.1575H12.2552H12.3532H12.4515H12.5502H12.6492H12.7485H12.848H12.9479H13.0481H13.1486H13.2494H13.3505H13.4519H13.5536H13.6555H13.7578H13.8603H13.9631H14.0662H14.1696H14.2732H14.3771H14.4813H14.5858H14.6905H14.7955H14.9007H15.0062H15.112H15.218H15.3243H15.4308H15.5376H15.6446H15.7518H15.8593H15.9671H16.0751H16.1833H16.2917H16.4004H16.5093H16.6184H16.7277H16.8373H16.9471H17.0571H17.1673H17.2777H17.3883H17.4991H17.6102H17.7214H17.8329H17.9445H18.0563H18.1684H18.2806H18.393H18.5056H18.6184H18.7313H18.8445H18.9578H19.0713H19.1849H19.2988H19.4128H19.5269H19.6413H19.7558H19.8704H19.9852H20.1002H20.2153H20.3305H20.446H20.5615H20.6772H20.7931H20.909H21.0251H21.1414H21.2578H21.3743H21.4909H21.6077H21.7245H21.8415H21.9587H22.0759H22.1932H22.3107H22.4283H22.5459H22.6637H22.7816H22.8996H23.0177H23.1358H23.2541H23.3725H23.4909H23.6094H23.728H23.8467H23.9655H24.0844H24.2033H24.3223H24.4413H24.5605H24.6797H24.7989H24.9183H25.0376H25.1571H25.2766H25.3961H25.5157H25.6354H25.755H25.8748H25.9945H26.1143H26.2342H26.3541H26.474H26.5939H26.7139H26.8339H26.9539H27.0739H27.194H27.314H27.4341H27.5542H27.6743H27.7944H27.9145H28.0346H28.1547H28.2748H28.3949H28.515H28.6351H28.7551H28.8752H28.9952H29.1152H29.2352H29.3552H29.4752H29.5951H29.715H29.8348H29.9546H30.0744H30.1942H30.3139H30.4335H30.5532H30.6727H30.7922H30.9117H31.0311H31.1505H31.2697H31.389H31.5081H31.6272H31.7463H31.8652H31.9841H32.1029H32.2216H32.3403H32.4588H32.5773H32.6957H32.814H32.9322H33.0504H33.1684H33.2863H33.4041H33.5218H33.6395H33.757H33.8744H33.9916H34.1088H34.2259H34.3428H34.4596H34.5763H34.6928H34.8093H34.9256H35.0418H35.1578H35.2737H35.3894H35.5051H35.6205H35.7359H35.851H35.9661H36.0809H36.1957H36.3102H36.4246H36.5388H36.6529H36.7668H36.8806H36.9941H37.1075H37.2207H37.3338H37.4466H37.5593H37.6718H37.7841H37.8962H38.0081H38.1198H38.2314H38.3427H38.4538H38.5647H38.6754H38.786H38.8963H39.0063H39.1162H39.2259H39.3353H39.4445H39.5535H39.6623H39.7708H39.8791H39.9872H40.095H40.2026H40.31H40.4171H40.524H40.6306H40.737H40.8431H40.949H41.0546H41.16H41.265H41.3699H41.4745H41.5788H41.6828H41.7866H41.89H41.9933H42.0962H42.1988H42.3012H42.4033H42.5051H42.6066H42.7078H42.8087H42.9093H43.0097H43.1097H43.2094H43.3088H43.4079H43.5067H43.6052H43.7034H43.8012H43.8987H43.9959H44.0928H44.1894H44.2856H44.3815H44.4771H44.5723H44.6672H44.7617H44.8559H44.9498H45.0433H45.1365H45.2293H45.3218H45.4139H45.5056H45.597H45.688H45.7787H45.869H45.9589H46.0484H46.1376H46.2264H46.3148H46.4029H46.4905H46.5778H46.6647H46.7512H46.8373H46.923H47.0083H47.0932H47.1777H47.2618H47.3455H47.4288H47.5117H47.5941H47.6762H47.7578H47.839H47.9198H48.0002C51.0487 6.5 53.5 8.91208 53.5 11.8637V31.4092C53.5 34.3605 51.0488 36.7727 48.0002 36.7727H47.9295H47.8584H47.7871H47.7155H47.6435H47.5712H47.4987H47.4258H47.3526H47.2791H47.2053H47.1312H47.0568H46.9821H46.9072H46.8319H46.7563H46.6805H46.6044H46.528H46.4513H46.3743H46.297H46.2195H46.1417H46.0636H45.9852H45.9066H45.8277H45.7485H45.6691H45.5894H45.5094H45.4292H45.3487H45.268H45.187H45.1058H45.0243H44.9426H44.8606H44.7783H44.6959H44.6131H44.5302H44.447H44.3636H44.2799H44.196H44.1119H44.0275H43.9429H43.8581H43.7731H43.6878H43.6023H43.5166H43.4307H43.3446H43.2582H43.1717H43.0849H42.9979H42.9107H42.8234H42.7358H42.648H42.56H42.4718H42.3834H42.2948H42.2061H42.1171H42.028H41.9386H41.8491H41.7594H41.6695H41.5795H41.4892H41.3988H41.3082H41.2175H41.1265H41.0354H40.9442H40.8527H40.7611H40.6694H40.5774H40.4854H40.3931H40.3007H40.2082H40.1155H40.0227H39.9297H39.8365H39.7433H39.6498H39.5563H39.4626H39.3687H39.2748H39.1807H39.0864H38.9921H38.8976H38.8029H38.7082H38.6133H38.5183H38.4232H38.328H38.2327H38.1372H38.0417H37.946H37.8502H37.7543H37.6583H37.5622H37.466H37.3697H37.2733H37.1768H37.0802H36.9836H36.8868H36.7899H36.693H36.596H36.4989H36.4017H36.3044H36.207H36.1096H36.0121H35.9145H35.8169H35.7192H35.6214H35.5235H35.4256H35.3277H35.2296H35.1315H35.0334H34.9352H34.8369H34.7386H34.6403H34.5419H34.4434H34.3449H34.2464H34.1478H34.0492H33.9505H33.8519H33.7531H33.6544H33.5556H33.4568H33.358H33.2591H33.1602H33.0613H32.9624H32.8634H32.7645H32.6655H32.5665H32.4675H32.3685H32.2695H32.1705H32.0715H31.9725H31.8735H31.7745H31.6755H31.5765H31.4775H31.3785H31.2795H31.1805H31.0816H30.9827H30.8837H30.7848H30.686H30.5871H30.4883H30.3895H30.2908H30.192H30.0933H29.9946H29.896H29.7974H29.6989H29.6004H29.5019H29.4035H29.3051H29.2068H29.1085H29.0103H28.9121H28.814H28.7159H28.6179H28.52H28.4221H28.3243H28.2265H28.1289H28.0313H27.9337H27.8363H27.7389H27.6416H27.5443H27.4472H27.3501H27.2531H27.1562H27.0594H26.9627H26.8661H26.7696H26.6731H26.5768H26.4805H26.3844H26.2884H26.1924H26.0966H26.0009H25.9053H25.8097H25.7144H25.6191H25.5239H25.4289H25.334H25.2392H25.1445H25.0499H24.9555H24.8612H24.7671H24.673H24.5791H24.4854H24.3917H24.2983H24.2049H24.1117H24.0187H23.9258H23.833H23.7404H23.6479H23.5556H23.4635H23.3715H23.2797H23.188H23.0965H23.0051H22.914H22.8229H22.7321H22.6414H22.5509H22.4606H22.3705H22.2805H22.1907H22.1011H22.0117H21.9225H21.8335H21.7446H21.6559H21.5675H21.4792H21.3911H21.3032H21.2156H21.1281H21.0408H20.9538H20.8669H20.7802H20.6938H20.6076H20.5216H20.4358H20.3502H20.2648H20.1797H20.0948H20.0101H19.9256H19.8414H19.7574H19.6736H19.5901H19.5068H19.4237H19.3409H19.2583H19.176H19.0939H19.012H18.9304H18.8491H18.768H18.6872H18.6066H18.5262H18.4462H18.3663H18.2868H18.2075H18.1285H18.0497H17.9713H17.8931H17.8151H17.7375H17.6601H17.583H17.5061H17.4296H17.3533H17.2774H17.2017H17.1263H17.0512H16.9764H16.9019H16.8276H16.7537H16.6801H16.6068H16.5338H16.461H16.3886H16.3165H16.2448H16.1733H16.1021H16.0313H15.9608H15.8906H15.8207H15.7511H15.6819H15.613H15.5444H15.4761H15.4082H15.3406H15.2734H15.2065H15.1399H15.0737H15.0078H14.9422H14.8771H14.8122H14.7477H14.6836H14.6198H14.5563H14.4932H14.4305H14.3682H14.3062H14.2445H14.1833H14.1224H14.0618H14.0017H13.9419H13.8825H13.8234H13.7648H13.7065H13.6486H13.5911H13.534H13.4772H13.4209H13.3649H13.3094H13.2542H13.1994H13.145H13.0911H13.0375H12.9843H12.9316H12.8792H12.8273H12.7757H12.7246H12.6739H12.6236H12.5737H12.5242H12.4752H12.4266H12.3784H12.3306H12.2833H12.2364H12.1899H12.1439H12.0983H12.0531H12.0084H11.9641H11.9202H11.8768H11.8339H11.7914H11.7493H11.7077H11.6666H11.6259H11.5856H11.5459H11.5065H11.4677H11.4293H11.3914H11.3539H11.3169H11.2804H11.2443H11.2088H11.1737H11.1391H11.1049H11.0713H11.0381H11.0054H10.9732H10.9415H10.9103H10.8796H10.8493H10.8196H10.7903H10.7616H10.7334H10.7056H10.6784H10.6517H10.6255H10.5998H10.5746H10.5499H10.5257H10.5021H10.479H10.4564H10.4343H10.4127H10.3917H10.3712H10.3512H10.3318H10.3129H10.2945H10.2767H10.2594H10.2427H10.2264H10.2108H10.1957H10.1811H10.1671H10.1536H10.1407H10.1283H10.1165H10.1053H10.0946H10.0844H10.0749H10.0659H10.0575H10.0496H10.0423H10.0356H10.0295H10.0239H10.0189H10.0145H10.0107H10.0074H10.0048H10.0027H10.0012H10.0003C10.0001 36.7727 10 36.7727 10 37.2727V36.7727Z" stroke="#8ECAE6"/>
</svg>
