<svg width="73" height="49" viewBox="0 0 73 49" fill="none" xmlns="http://www.w3.org/2000/svg">
<path d="M46.8671 24C46.8671 36.4264 36.7935 46.5 24.3671 46.5C11.9408 46.5 1.86719 36.4264 1.86719 24C1.86719 11.5736 11.9408 1.5 24.3671 1.5C36.7935 1.5 46.8671 11.5736 46.8671 24Z" fill="#68DBFF"/>
<path d="M71.1321 24C71.1321 36.4264 61.1571 46.5 48.8526 46.5C36.5481 46.5 26.5732 36.4264 26.5732 24C26.5732 11.5736 36.5481 1.5 48.8526 1.5C61.1571 1.5 71.1321 11.5736 71.1321 24Z" fill="#FF7917"/>
<path d="M36.6702 42.8416C42.8106 38.8239 46.8673 31.8858 46.8673 24C46.8673 16.1144 42.8106 9.17617 36.6702 5.15857C30.5901 9.17617 26.5732 16.1144 26.5732 24C26.5732 31.8858 30.5901 38.8239 36.6702 42.8416Z" fill="#5D2C02"/>
</svg>
