<svg width="171" height="41" viewBox="0 0 171 41" fill="none" xmlns="http://www.w3.org/2000/svg">
<g clip-path="url(#clip0_106_91)">
<path d="M52.5366 28.138H64.4886V24.538H56.7846V10.978H52.5366V28.138Z" fill="#8ECAE6"/>
<path d="M71.5701 25.738C69.8661 25.738 68.9781 24.25 68.9781 22.018C68.9781 19.786 69.8661 18.274 71.5701 18.274C73.2741 18.274 74.1861 19.786 74.1861 22.018C74.1861 24.25 73.2741 25.738 71.5701 25.738ZM71.5941 28.522C75.5541 28.522 78.1461 25.714 78.1461 22.018C78.1461 18.322 75.5541 15.514 71.5941 15.514C67.6581 15.514 65.0181 18.322 65.0181 22.018C65.0181 25.714 67.6581 28.522 71.5941 28.522Z" fill="#8ECAE6"/>
<path d="M85.0003 32.386C86.8243 32.386 88.4323 31.978 89.5123 31.018C90.4963 30.13 91.1443 28.786 91.1443 26.938V15.85H87.4003V17.17H87.3523C86.6323 16.138 85.5283 15.49 83.8963 15.49C80.8483 15.49 78.7363 18.034 78.7363 21.634C78.7363 25.402 81.3043 27.466 84.0643 27.466C85.5523 27.466 86.4883 26.866 87.2083 26.05H87.3043V27.274C87.3043 28.762 86.6083 29.626 84.9523 29.626C83.6563 29.626 83.0083 29.074 82.7923 28.426H79.0003C79.3843 30.994 81.6163 32.386 85.0003 32.386ZM84.9763 24.562C83.5123 24.562 82.5523 23.362 82.5523 21.514C82.5523 19.642 83.5123 18.442 84.9763 18.442C86.6083 18.442 87.4723 19.834 87.4723 21.49C87.4723 23.218 86.6803 24.562 84.9763 24.562Z" fill="#8ECAE6"/>
<path d="M98.8425 25.738C97.1385 25.738 96.2505 24.25 96.2505 22.018C96.2505 19.786 97.1385 18.274 98.8425 18.274C100.547 18.274 101.459 19.786 101.459 22.018C101.459 24.25 100.547 25.738 98.8425 25.738ZM98.8665 28.522C102.827 28.522 105.419 25.714 105.419 22.018C105.419 18.322 102.827 15.514 98.8665 15.514C94.9305 15.514 92.2905 18.322 92.2905 22.018C92.2905 25.714 94.9305 28.522 98.8665 28.522Z" fill="#8ECAE6"/>
<path d="M106.561 28.138H110.473V15.85H106.561V28.138ZM106.561 14.146H110.473V10.978H106.561V14.146Z" fill="#8ECAE6"/>
<path d="M112.171 32.194H116.083V26.866H116.131C116.899 27.898 118.027 28.522 119.611 28.522C122.827 28.522 124.963 25.978 124.963 21.994C124.963 18.298 122.971 15.49 119.707 15.49C118.027 15.49 116.827 16.234 115.987 17.338H115.915V15.85H112.171V32.194ZM118.603 25.498C116.923 25.498 115.963 24.13 115.963 22.138C115.963 20.146 116.827 18.634 118.531 18.634C120.211 18.634 121.003 20.026 121.003 22.138C121.003 24.226 120.091 25.498 118.603 25.498Z" fill="#8ECAE6"/>
<path d="M131.332 28.522C134.548 28.522 136.924 27.13 136.924 24.442C136.924 21.298 134.38 20.746 132.22 20.386C130.66 20.098 129.268 19.978 129.268 19.114C129.268 18.346 130.012 17.986 130.972 17.986C132.052 17.986 132.796 18.322 132.94 19.426H136.54C136.348 17.002 134.476 15.49 130.996 15.49C128.092 15.49 125.692 16.834 125.692 19.426C125.692 22.306 127.972 22.882 130.108 23.242C131.74 23.53 133.228 23.65 133.228 24.754C133.228 25.546 132.484 25.978 131.308 25.978C130.012 25.978 129.196 25.378 129.052 24.154H125.356C125.476 26.866 127.732 28.522 131.332 28.522Z" fill="#8ECAE6"/>
<path d="M142.238 28.498C143.942 28.498 145.022 27.826 145.91 26.626H145.982V28.138H149.726V15.85H145.814V22.714C145.814 24.178 144.998 25.186 143.654 25.186C142.406 25.186 141.806 24.442 141.806 23.098V15.85H137.918V23.914C137.918 26.65 139.406 28.498 142.238 28.498Z" fill="#8ECAE6"/>
<path d="M151.427 28.138H155.339V21.25C155.339 19.786 156.059 18.754 157.283 18.754C158.459 18.754 159.011 19.522 159.011 20.842V28.138H162.923V21.25C162.923 19.786 163.619 18.754 164.867 18.754C166.043 18.754 166.595 19.522 166.595 20.842V28.138H170.507V20.146C170.507 17.386 169.115 15.49 166.331 15.49C164.747 15.49 163.427 16.162 162.467 17.65H162.419C161.795 16.33 160.571 15.49 158.963 15.49C157.187 15.49 156.011 16.33 155.243 17.602H155.171V15.85H151.427V28.138Z" fill="#8ECAE6"/>
<path fill-rule="evenodd" clip-rule="evenodd" d="M21.3609 40.138C32.4066 40.138 41.3609 31.1837 41.3609 20.138C41.3609 9.09237 32.4066 0.138062 21.3609 0.138062C10.3151 0.138062 1.36084 9.09237 1.36084 20.138C1.36084 31.1837 10.3151 40.138 21.3609 40.138ZM27.6002 9.4549C27.9039 8.37611 26.857 7.73819 25.9009 8.41936L12.554 17.9276C11.5171 18.6663 11.6802 20.138 12.799 20.138H16.3136V20.1108H23.1634L17.5821 22.0801L15.1216 30.8212C14.8179 31.9 15.8647 32.5379 16.8209 31.8567L30.1678 22.3485C31.2047 21.6098 31.0415 20.138 29.9228 20.138H24.593L27.6002 9.4549Z" fill="#F5841F"/>
</g>
<defs>
<clipPath id="clip0_106_91">
<rect width="170" height="41" fill="white" transform="translate(0.676758)"/>
</clipPath>
</defs>
</svg>
