<svg width="147" height="46" viewBox="0 0 147 46" fill="none" xmlns="http://www.w3.org/2000/svg">
<path fill-rule="evenodd" clip-rule="evenodd" d="M72.6758 7.40747C74.0636 6.01977 76.3136 6.01977 77.7014 7.40747C79.0892 8.79527 79.0892 11.0453 77.7014 12.4331L69.2405 20.894C66.8113 17.6384 67.0752 13.0082 70.0322 10.0512L72.6758 7.40747Z" fill="#4F9E91"/>
<path fill-rule="evenodd" clip-rule="evenodd" d="M84.7708 26.4967C86.1588 27.8844 86.1588 30.1345 84.7708 31.5222C83.3838 32.91 81.1334 32.91 79.7456 31.5222L71.2847 23.0614C74.5403 20.6322 79.1705 20.896 82.1275 23.853L84.7708 26.4967Z" fill="#EBE1C5"/>
<path fill-rule="evenodd" clip-rule="evenodd" d="M65.6821 38.5924C64.2944 39.9802 62.0443 39.9802 60.6566 38.5924C59.2688 37.2046 59.2688 34.9546 60.6566 33.5668L69.1174 25.106C71.5466 28.3616 71.2828 32.9918 68.3258 35.9487L65.6821 38.5924Z" fill="#EBCC6E"/>
<path fill-rule="evenodd" clip-rule="evenodd" d="M53.5863 19.5032C52.1985 18.1154 52.1985 15.8654 53.5863 14.4776C54.9741 13.0898 57.2241 13.0898 58.6119 14.4776L67.0728 22.9385C63.8172 25.3677 59.1869 25.1038 56.23 22.1469L53.5863 19.5032Z" fill="#ED834E"/>
<path fill-rule="evenodd" clip-rule="evenodd" d="M70.7847 37.5562C72.831 35.281 73.7821 32.3697 73.6378 29.5033L77.7012 33.5667C77.7113 33.5768 77.7215 33.5869 77.7317 33.597V36.498C77.7317 38.4606 76.1407 40.0516 74.1781 40.0516C72.584 40.0516 71.2351 39.002 70.7847 37.5562Z" fill="#ED834E"/>
<path fill-rule="evenodd" clip-rule="evenodd" d="M54.6228 24.6058C56.8979 26.6522 59.8092 27.6033 62.6756 27.459L58.6123 31.5224C58.6021 31.5325 58.592 31.5427 58.582 31.5528H55.681C53.7184 31.5529 52.1274 29.9618 52.1274 27.9992C52.1274 26.4052 53.177 25.0562 54.6228 24.6058Z" fill="#4F9E91"/>
<path fill-rule="evenodd" clip-rule="evenodd" d="M83.7352 21.3942C81.4603 19.3478 78.549 18.3967 75.6826 18.5409L79.7459 14.4776C79.7561 14.4675 79.7661 14.4573 79.7762 14.4471H82.6773C84.6402 14.4471 86.2312 16.0382 86.2312 18.0008C86.2312 19.5949 85.1812 20.9438 83.7352 21.3942Z" fill="#EBCC6E"/>
<path fill-rule="evenodd" clip-rule="evenodd" d="M67.573 8.44362C65.5266 10.7187 64.5756 13.63 64.7198 16.4965L60.6565 12.4331C60.6463 12.423 60.6362 12.4129 60.626 12.4028V9.50182C60.626 7.53922 62.217 5.94812 64.1796 5.94812C65.7737 5.94812 67.1226 6.99782 67.573 8.44362Z" fill="#EBE1C5"/>
<path fill-rule="evenodd" clip-rule="evenodd" d="M64.18 3.05701C60.6206 3.05701 57.7351 5.94251 57.7351 9.50191V10.7554C55.5937 10.1959 53.2205 10.7551 51.5424 12.4332C49.0255 14.9501 49.0255 19.0308 51.5424 21.5477L52.4287 22.434C50.5189 23.5526 49.2363 25.6261 49.2363 27.9992C49.2363 31.5586 52.1218 34.4441 55.6812 34.4441H56.9346C56.3751 36.5855 56.9343 38.9587 58.6124 40.6367C61.1293 43.1536 65.21 43.1536 67.7269 40.6367L70.3705 37.9931C72.7026 35.661 73.7918 32.5566 73.6381 29.5032L77.7016 33.5666C80.2185 36.0835 84.2993 36.0835 86.8163 33.5666C89.3333 31.0497 89.3333 26.969 86.8163 24.4522L85.9303 23.566C87.8393 22.4474 89.1223 20.3739 89.1223 18.0008C89.1223 14.4414 86.2363 11.5559 82.6773 11.5559H81.4238C81.9834 9.41441 81.4241 7.04121 79.746 5.36311C77.2292 2.84621 73.1485 2.84621 70.6316 5.36311L67.9879 8.00681C65.6558 10.3389 64.5666 13.4432 64.7203 16.4966L60.6569 12.4332C60.6467 12.4231 60.6366 12.413 60.6264 12.4029V9.50191C60.6264 7.53931 62.2174 5.94831 64.18 5.94831C65.7741 5.94831 67.123 6.99791 67.5734 8.44371C67.7069 8.29531 67.845 8.14961 67.9878 8.00681L69.7452 6.24941C68.6266 4.33961 66.5531 3.05701 64.18 3.05701ZM79.7763 14.4472C79.7662 14.4573 79.7562 14.4675 79.746 14.4776L75.6827 18.5409C78.5492 18.3967 81.4604 19.3477 83.7353 21.3942C85.1813 20.9438 86.2313 19.5948 86.2313 18.0008C86.2313 16.0382 84.6403 14.4472 82.6773 14.4472H79.7763ZM58.582 31.5528C58.5921 31.5426 58.6022 31.5324 58.6124 31.5223L62.6757 27.4589C59.8093 27.6032 56.8981 26.6521 54.623 24.6058C53.1772 25.0562 52.1275 26.4051 52.1275 27.9992C52.1275 29.9618 53.7186 31.5528 55.6812 31.5528H58.582ZM54.5122 24.5048C54.4019 24.4029 54.2932 24.2984 54.1861 24.1913V24.1914C54.2932 24.2985 54.4019 24.4029 54.5122 24.5048ZM74.1785 42.943C71.8053 42.943 69.7318 41.6603 68.6132 39.7505L70.3705 37.9931C70.5134 37.8503 70.6515 37.7046 70.785 37.5562C71.2354 39.002 72.5843 40.0517 74.1785 40.0517C76.1411 40.0517 77.7321 38.4607 77.7321 36.4981V33.5971C78.5649 34.419 79.5659 34.9682 80.6234 35.2445V36.4981C80.6234 40.0575 77.7379 42.943 74.1785 42.943ZM77.7016 7.40751C76.3138 6.01981 74.0638 6.01981 72.676 7.40751L70.0323 10.0512C67.0754 13.0082 66.8115 17.6384 69.2407 20.894L77.7016 12.4331C79.0894 11.0453 79.0894 8.79531 77.7016 7.40751ZM84.7713 31.5222C86.1593 30.1344 86.1593 27.8844 84.7713 26.4966L82.1279 23.8529C79.171 20.896 74.5407 20.6321 71.2851 23.0613L79.746 31.5222C81.1338 32.91 83.3843 32.91 84.7713 31.5222ZM65.6824 38.5923C64.2946 39.9801 62.0446 39.9801 60.6568 38.5923C59.2691 37.2045 59.2691 34.9545 60.6568 33.5667L69.1177 25.1058C71.5469 28.3614 71.283 32.9917 68.3261 35.9486L65.6824 38.5923ZM53.5868 14.4776C52.1991 15.8654 52.1991 18.1154 53.5868 19.5032L56.2305 22.1469C59.1875 25.1038 63.8177 25.3677 67.0733 22.9385L58.6124 14.4776C57.2246 13.0899 54.9746 13.0899 53.5868 14.4776Z" fill="#3D3A2C"/>
<path d="M1.53271 16.0898H4.69331V25.911H10.1217V28.5716H1.53271V16.0898Z" fill="#3D3A2C"/>
<path d="M15.8603 28.8394C14.8008 28.8394 13.8722 28.6489 13.0746 28.268C12.277 27.8751 11.658 27.3394 11.2175 26.6609C10.789 25.9704 10.5747 25.1788 10.5747 24.2859C10.5747 23.3931 10.789 22.6074 11.2175 21.9289C11.658 21.2384 12.277 20.7027 13.0746 20.3218C13.8722 19.9289 14.8008 19.7325 15.8603 19.7325C16.9198 19.7325 17.8483 19.9289 18.6459 20.3218C19.4435 20.7027 20.0566 21.2384 20.4851 21.9289C20.9256 22.6074 21.1458 23.3931 21.1458 24.2859C21.1458 25.1788 20.9256 25.9704 20.4851 26.6609C20.0566 27.3394 19.4435 27.8751 18.6459 28.268C17.8483 28.6489 16.9198 28.8394 15.8603 28.8394ZM15.8603 26.393C16.4912 26.393 16.9912 26.2085 17.3602 25.8395C17.7412 25.4585 17.9316 24.9407 17.9316 24.2859C17.9316 23.6312 17.7412 23.1193 17.3602 22.7503C16.9912 22.3693 16.4912 22.1789 15.8603 22.1789C15.2293 22.1789 14.7234 22.3693 14.3425 22.7503C13.9734 23.1193 13.7889 23.6312 13.7889 24.2859C13.7889 24.9407 13.9734 25.4585 14.3425 25.8395C14.7234 26.2085 15.2293 26.393 15.8603 26.393Z" fill="#3D3A2C"/>
<path d="M27.0494 32.6786C26.478 32.6786 25.9006 32.625 25.3173 32.5179C24.7459 32.4107 24.2518 32.2679 23.8352 32.0893V29.9108C24.7756 30.3155 25.847 30.5179 27.0494 30.5179C27.9184 30.5179 28.5434 30.3393 28.9243 29.9822C29.3172 29.6251 29.5136 29.1013 29.5136 28.4108V27.893C29.1684 28.1906 28.7398 28.4227 28.2279 28.5894C27.7279 28.7561 27.1922 28.8394 26.6208 28.8394C25.7161 28.8394 24.9185 28.6489 24.228 28.268C23.5376 27.887 22.9959 27.3513 22.6031 26.6609C22.2221 25.9704 22.0317 25.1788 22.0317 24.2859C22.0317 23.3812 22.2221 22.5836 22.6031 21.8932C22.984 21.2027 23.5197 20.6729 24.2102 20.3039C24.9006 19.923 25.6923 19.7325 26.5851 19.7325C27.8113 19.7325 28.8231 20.1075 29.6207 20.8575V20.0003H32.6564V27.9823C32.6564 29.4703 32.198 30.6251 31.2814 31.4465C30.3767 32.2679 28.966 32.6786 27.0494 32.6786ZM27.4065 26.4109C27.8946 26.4109 28.3291 26.2859 28.71 26.0359C29.091 25.7859 29.3588 25.4526 29.5136 25.0359V23.536C29.3469 23.1193 29.0731 22.7919 28.6922 22.5538C28.3112 22.3039 27.8827 22.1789 27.4065 22.1789C26.7637 22.1789 26.2458 22.3693 25.853 22.7503C25.4601 23.1193 25.2637 23.6252 25.2637 24.2681C25.2637 24.9228 25.4601 25.4466 25.853 25.8395C26.2458 26.2204 26.7637 26.4109 27.4065 26.4109Z" fill="#3D3A2C"/>
<path d="M38.7392 28.8394C37.6797 28.8394 36.7512 28.6489 35.9536 28.268C35.156 27.8751 34.5369 27.3394 34.0965 26.6609C33.6679 25.9704 33.4536 25.1788 33.4536 24.2859C33.4536 23.3931 33.6679 22.6074 34.0965 21.9289C34.5369 21.2384 35.156 20.7027 35.9536 20.3218C36.7512 19.9289 37.6797 19.7325 38.7392 19.7325C39.7987 19.7325 40.7272 19.9289 41.5248 20.3218C42.3224 20.7027 42.9355 21.2384 43.3641 21.9289C43.8045 22.6074 44.0248 23.3931 44.0248 24.2859C44.0248 25.1788 43.8045 25.9704 43.3641 26.6609C42.9355 27.3394 42.3224 27.8751 41.5248 28.268C40.7272 28.6489 39.7987 28.8394 38.7392 28.8394ZM38.7392 26.393C39.3701 26.393 39.8701 26.2085 40.2392 25.8395C40.6201 25.4585 40.8106 24.9407 40.8106 24.2859C40.8106 23.6312 40.6201 23.1193 40.2392 22.7503C39.8701 22.3693 39.3701 22.1789 38.7392 22.1789C38.1083 22.1789 37.6023 22.3693 37.2214 22.7503C36.8523 23.1193 36.6678 23.6312 36.6678 24.2859C36.6678 24.9407 36.8523 25.4585 37.2214 25.8395C37.6023 26.2085 38.1083 26.393 38.7392 26.393Z" fill="#3D3A2C"/>
<path d="M94.4321 16.0898H97.5931V28.5716H94.4321V16.0898Z" fill="#3D3A2C"/>
<path d="M99.1929 20.0003H102.229V20.8575C103.026 20.1075 104.038 19.7325 105.264 19.7325C106.157 19.7325 106.949 19.923 107.639 20.3039C108.33 20.6729 108.865 21.2027 109.246 21.8932C109.627 22.5717 109.818 23.3634 109.818 24.2681C109.818 25.1609 109.627 25.9585 109.246 26.6609C108.865 27.3513 108.33 27.887 107.639 28.268C106.961 28.6489 106.169 28.8394 105.264 28.8394C104.693 28.8394 104.145 28.7501 103.622 28.5715C103.11 28.4049 102.681 28.1727 102.336 27.8751V32.4821H99.1929V20.0003ZM104.443 26.393C105.086 26.393 105.604 26.2026 105.996 25.8216C106.389 25.4407 106.586 24.9228 106.586 24.2681C106.586 23.6133 106.389 23.1015 105.996 22.7324C105.604 22.3515 105.086 22.161 104.443 22.161C103.967 22.161 103.538 22.286 103.157 22.536C102.776 22.7741 102.503 23.1015 102.336 23.5181V25.0359C102.503 25.4526 102.776 25.7859 103.157 26.0359C103.538 26.274 103.967 26.393 104.443 26.393Z" fill="#3D3A2C"/>
<path d="M114.503 28.8394C113.813 28.8394 113.093 28.768 112.343 28.6251C111.593 28.4942 110.997 28.3037 110.557 28.0537V25.7502C111.045 26.0359 111.628 26.274 112.307 26.4645C112.997 26.643 113.628 26.7323 114.2 26.7323C114.616 26.7323 114.92 26.7025 115.11 26.643C115.301 26.5835 115.396 26.4645 115.396 26.2859C115.396 26.143 115.331 26.0299 115.2 25.9466C115.081 25.8514 114.854 25.7561 114.521 25.6609C114.2 25.5538 113.825 25.4407 113.396 25.3216C112.67 25.1073 112.099 24.8871 111.682 24.6609C111.265 24.4347 110.956 24.149 110.753 23.8038C110.551 23.4586 110.45 23.0241 110.45 22.5003C110.45 21.5717 110.813 20.8813 111.539 20.4289C112.277 19.9646 113.283 19.7325 114.557 19.7325C115.176 19.7325 115.825 19.798 116.503 19.9289C117.194 20.0599 117.711 20.2325 118.057 20.4468V22.7146C117.7 22.4765 117.223 22.28 116.628 22.1253C116.045 21.9705 115.497 21.8932 114.985 21.8932C114.581 21.8932 114.265 21.9348 114.039 22.0181C113.813 22.0896 113.7 22.2205 113.7 22.411C113.7 22.5896 113.813 22.7265 114.039 22.8217C114.265 22.9169 114.67 23.036 115.253 23.1788C115.634 23.2741 115.795 23.3157 115.735 23.3038C116.497 23.5062 117.086 23.7324 117.503 23.9824C117.92 24.2324 118.211 24.53 118.378 24.8752C118.557 25.2085 118.646 25.6371 118.646 26.1609C118.646 26.9823 118.289 27.637 117.575 28.1251C116.872 28.6013 115.848 28.8394 114.503 28.8394Z" fill="#3D3A2C"/>
<path d="M123.338 28.8395C122.16 28.8395 121.273 28.5121 120.678 27.8574C120.095 27.2026 119.803 26.3396 119.803 25.2682V20.0004H122.946V24.911C122.946 25.8991 123.392 26.3931 124.285 26.3931C124.69 26.3931 125.059 26.2979 125.392 26.1074C125.725 25.9169 125.999 25.6372 126.213 25.2682V20.0004H129.356V28.5716H126.321V27.6431C125.952 28.0359 125.505 28.3335 124.981 28.5359C124.458 28.7383 123.91 28.8395 123.338 28.8395Z" fill="#3D3A2C"/>
<path d="M130.965 20.0003H133.876V20.9289C134.233 20.548 134.644 20.2563 135.108 20.0539C135.572 19.8396 136.066 19.7325 136.59 19.7325C137.233 19.7325 137.745 19.8277 138.126 20.0182C138.519 20.2087 138.834 20.4944 139.072 20.8753C139.429 20.5182 139.864 20.2384 140.376 20.0361C140.888 19.8337 141.406 19.7325 141.929 19.7325C143.06 19.7325 143.864 20.0242 144.34 20.6075C144.816 21.1789 145.054 22.0062 145.054 23.0895V28.5715H142.054V23.536C142.054 23.0598 141.965 22.7146 141.786 22.5003C141.608 22.286 141.31 22.1789 140.894 22.1789C140.358 22.1789 139.923 22.3693 139.59 22.7503C139.602 22.9526 139.608 23.2622 139.608 23.6788V28.5715H136.608V23.411C136.608 22.9705 136.531 22.655 136.376 22.4646C136.221 22.2741 135.947 22.1789 135.555 22.1789C134.947 22.1789 134.424 22.5181 133.983 23.1967V28.5715H130.965V20.0003Z" fill="#3D3A2C"/>
</svg>
