<svg width="41" height="41" viewBox="0 0 41 41" fill="none" xmlns="http://www.w3.org/2000/svg">
<path fill-rule="evenodd" clip-rule="evenodd" d="M20.6684 40.138C31.7056 40.138 40.6531 31.1837 40.6531 20.138C40.6531 9.09237 31.7056 0.138062 20.6684 0.138062C9.63106 0.138062 0.683594 9.09237 0.683594 20.138C0.683594 31.1837 9.63106 40.138 20.6684 40.138ZM26.9029 9.4549C27.2064 8.37611 26.1603 7.73819 25.2049 8.41936L11.8682 17.9276C10.8321 18.6663 10.995 20.138 12.113 20.138H15.6249V20.1108H22.4695L16.8924 22.0801L14.4338 30.8212C14.1304 31.9 15.1764 32.5379 16.1318 31.8567L29.4686 22.3485C30.5047 21.6098 30.3416 20.138 29.2237 20.138H23.898L26.9029 9.4549Z" fill="#F5841F"/>
</svg>
