<svg width="60" height="60" viewBox="0 0 60 60" fill="none" xmlns="http://www.w3.org/2000/svg">
<g clip-path="url(#clip0_106_208)">
<path d="M31.2496 25C31.2496 20.875 27.8746 17.5 23.7496 17.5C19.6246 17.5 16.2496 20.875 16.2496 25C16.2496 29.125 19.6246 32.5 23.7496 32.5C27.8746 32.5 31.2496 29.125 31.2496 25ZM23.7496 27.5C22.3746 27.5 21.2496 26.375 21.2496 25C21.2496 23.625 22.3746 22.5 23.7496 22.5C25.1246 22.5 26.2496 23.625 26.2496 25C26.2496 26.375 25.1246 27.5 23.7496 27.5ZM39.9996 32.5C42.7746 32.5 44.9996 30.275 44.9996 27.5C44.9996 24.725 42.7746 22.5 39.9996 22.5C37.2246 22.5 34.9746 24.725 34.9996 27.5C34.9996 30.275 37.2246 32.5 39.9996 32.5ZM29.9746 5.02502C16.1746 5.02502 4.97461 16.225 4.97461 30.025C4.97461 43.825 16.1746 55.025 29.9746 55.025C43.7746 55.025 54.9746 43.825 54.9746 30.025C54.9746 16.225 43.7746 5.02502 29.9746 5.02502ZM14.5996 42.8C16.2996 41.45 20.2746 40.025 23.7496 40.025C23.9246 40.025 24.1246 40.05 24.3246 40.05C24.9246 38.45 25.9996 36.825 27.5746 35.4C26.3133 35.1584 25.0337 35.0246 23.7496 35C20.4996 35 15.2746 36.125 11.9246 38.575C10.6746 35.975 9.97461 33.075 9.97461 30C9.97461 18.975 18.9496 10 29.9746 10C40.9996 10 49.9746 18.975 49.9746 30C49.9746 33 49.2996 35.85 48.0996 38.425C45.5996 36.95 42.1996 36.25 39.9996 36.25C36.1996 36.25 28.7496 38.275 28.7496 43V49.95C26.0262 49.7952 23.364 49.0803 20.9293 47.85C18.4946 46.6198 16.3399 44.9007 14.5996 42.8Z" fill="#8ECAE6"/>
</g>
<defs>
<clipPath id="clip0_106_208">
<rect width="60" height="60" fill="white"/>
</clipPath>
</defs>
</svg>
