<svg width="16" height="12" viewBox="0 0 16 12" fill="none" xmlns="http://www.w3.org/2000/svg">
<path fill-rule="evenodd" clip-rule="evenodd" d="M1.33333 1.33333H14.6667V2.50929L8 5.84262L1.33333 2.50929V1.33333ZM0 1.33333C0 0.596954 0.596954 0 1.33333 0H14.6667C15.403 0 16 0.596954 16 1.33333V3.33333V10C16 11.1046 15.1046 12 14 12H2C0.89543 12 0 11.1046 0 10V3.33333V1.33333ZM1.33333 4V10C1.33333 10.3682 1.63181 10.6667 2 10.6667H14C14.3682 10.6667 14.6667 10.3682 14.6667 10V4L8 7.33333L1.33333 4Z" fill="#F5841F"/>
</svg>
