<svg width="18" height="18" viewBox="0 0 18 18" fill="none" xmlns="http://www.w3.org/2000/svg">
<path fill-rule="evenodd" clip-rule="evenodd" d="M2.33333 4.33333H15.6667V5.50929L9 8.84262L2.33333 5.50929V4.33333ZM1 4.33333C1 3.59695 1.59695 3 2.33333 3H15.6667C16.403 3 17 3.59695 17 4.33333V6.33333V13C17 14.1046 16.1046 15 15 15H3C1.89543 15 1 14.1046 1 13V6.33333V4.33333ZM2.33333 7V13C2.33333 13.3682 2.63181 13.6667 3 13.6667H15C15.3682 13.6667 15.6667 13.3682 15.6667 13V7L9 10.3333L2.33333 7Z" fill="#F5841F"/>
</svg>
