<svg width="51" height="51" viewBox="0 0 51 51" fill="none" xmlns="http://www.w3.org/2000/svg">
<path d="M27.2496 20C27.2496 15.875 23.8746 12.5 19.7496 12.5C15.6246 12.5 12.2496 15.875 12.2496 20C12.2496 24.125 15.6246 27.5 19.7496 27.5C23.8746 27.5 27.2496 24.125 27.2496 20ZM19.7496 22.5C18.3746 22.5 17.2496 21.375 17.2496 20C17.2496 18.625 18.3746 17.5 19.7496 17.5C21.1246 17.5 22.2496 18.625 22.2496 20C22.2496 21.375 21.1246 22.5 19.7496 22.5ZM35.9996 27.5C38.7746 27.5 40.9996 25.275 40.9996 22.5C40.9996 19.725 38.7746 17.5 35.9996 17.5C33.2246 17.5 30.9746 19.725 30.9996 22.5C30.9996 25.275 33.2246 27.5 35.9996 27.5ZM25.9746 0.0250244C12.1746 0.0250244 0.974609 11.225 0.974609 25.025C0.974609 38.825 12.1746 50.025 25.9746 50.025C39.7746 50.025 50.9746 38.825 50.9746 25.025C50.9746 11.225 39.7746 0.0250244 25.9746 0.0250244ZM10.5996 37.8C12.2996 36.45 16.2746 35.025 19.7496 35.025C19.9246 35.025 20.1246 35.05 20.3246 35.05C20.9246 33.45 21.9996 31.825 23.5746 30.4C22.3133 30.1584 21.0337 30.0246 19.7496 30C16.4996 30 11.2746 31.125 7.92461 33.575C6.67461 30.975 5.97461 28.075 5.97461 25C5.97461 13.975 14.9496 5.00002 25.9746 5.00002C36.9996 5.00002 45.9746 13.975 45.9746 25C45.9746 28 45.2996 30.85 44.0996 33.425C41.5996 31.95 38.1996 31.25 35.9996 31.25C32.1996 31.25 24.7496 33.275 24.7496 38V44.95C22.0262 44.7952 19.364 44.0803 16.9293 42.85C14.4946 41.6198 12.3399 39.9007 10.5996 37.8Z" fill="#8ECAE6"/>
</svg>
