<svg width="16" height="16" viewBox="0 0 16 16" fill="none" xmlns="http://www.w3.org/2000/svg">
<path fill-rule="evenodd" clip-rule="evenodd" d="M3.39974 1.33391C3.92032 0.812894 4.76473 0.812658 5.28561 1.33338L7.74744 3.7945C8.26811 4.31503 8.26835 5.15905 7.74796 5.67987L6.87538 6.55317L9.71158 9.38892L10.5836 8.51619C11.1042 7.99517 11.9486 7.99494 12.4695 8.51566L14.6666 10.7121C15.1873 11.2327 15.1875 12.0767 14.6671 12.5975L13.2137 14.0521C12.3615 14.905 11.0496 15.0954 9.99016 14.5198C6.39188 12.565 3.43607 9.60962 1.4804 6.01191C0.904815 4.95304 1.09416 3.64139 1.94613 2.78872L3.39974 1.33391ZM6.80476 4.73745L4.34293 2.27633L2.88933 3.73114C2.45489 4.16593 2.35823 4.83497 2.65185 5.37513C4.48459 8.74671 7.25463 11.5164 10.6266 13.3482C11.1669 13.6417 11.8359 13.5446 12.2705 13.1097L13.7239 11.6551L11.5268 9.4586L9.71205 11.2748L4.99008 6.55363L6.80476 4.73745Z" fill="#F5841F"/>
</svg>
