<svg width="17" height="16" viewBox="0 0 17 16" fill="none" xmlns="http://www.w3.org/2000/svg">
<path fill-rule="evenodd" clip-rule="evenodd" d="M3.59358 1.33391C4.11417 0.812894 4.95858 0.812658 5.47946 1.33338L7.94128 3.7945C8.46196 4.31503 8.46219 5.15905 7.94181 5.67987L7.06923 6.55317L9.90543 9.38892L10.7774 8.51619C11.298 7.99517 12.1424 7.99494 12.6633 8.51566L14.8604 10.7121C15.3811 11.2327 15.3813 12.0767 14.8609 12.5975L13.4075 14.0521C12.5553 14.905 11.2435 15.0954 10.184 14.5198C6.58573 12.565 3.62992 9.60962 1.67425 6.01191C1.09866 4.95304 1.288 3.64139 2.13997 2.78872L3.59358 1.33391ZM6.99861 4.73745L4.53678 2.27633L3.08317 3.73114C2.64874 4.16593 2.55207 4.83497 2.84569 5.37513C4.67844 8.74671 7.44848 11.5164 10.8205 13.3482C11.3608 13.6417 12.0298 13.5446 12.4643 13.1097L13.9177 11.6551L11.7206 9.4586L9.9059 11.2748L5.18393 6.55363L6.99861 4.73745Z" fill="#F5841F"/>
</svg>
